<?xml version="1.0" encoding="UTF-8"?><svg id="Layer_1" xmlns="http://www.w3.org/2000/svg" viewBox="0 0 153.11 25.03"><path d="M146.56,13.49c-.03-.18.11-.63-.46-1.21-.75-.77-1.09-1.05-1.09-1.05,0,0,2.59-2.24,3.89-3.37h4.21c-2.14,1.82-4.42,3.81-6.56,5.63h0Z" fill="#fff" stroke-width="0"/><path d="M15.58,4.57c0,.13-.02.27-.07.42s-.12.29-.22.42-.24.24-.4.32-.36.13-.6.13h-4.04c-.08,0-.15-.01-.21-.04s-.12-.06-.17-.11-.08-.1-.11-.17-.04-.14-.04-.21V.53c0-.07.01-.14.04-.21s.06-.12.11-.17.1-.09.17-.11.14-.04.21-.04h3.56c.13,0,.27.02.42.07.15.05.29.12.42.22s.24.24.32.4.13.36.13.6v.2c0,.19-.03.39-.09.61s-.16.42-.3.62c.12.07.23.16.34.27.1.1.2.22.28.36s.14.29.19.46.07.36.07.57v.2h0ZM14.51,4.37c0-.14-.02-.26-.07-.37-.04-.11-.1-.21-.18-.28-.08-.08-.17-.14-.29-.18-.11-.04-.24-.06-.38-.06h-2.4v-1.07h1.92c.14,0,.26-.02.38-.06.11-.04.21-.1.29-.18s.14-.17.18-.28c.04-.11.06-.24.06-.37v-.2c0-.15-.07-.23-.22-.23h-3.03v3.74h3.58s.05-.01.07-.02.04-.04.06-.07.02-.08.02-.14v-.23Z" fill="#00aeef" stroke-width="0"/><path d="M21.2,4.37c0,.18-.02.35-.07.49s-.11.27-.18.38c-.08.11-.17.2-.27.28s-.21.14-.32.19-.22.08-.34.11c-.11.02-.22.03-.32.03h-1.92c-.15,0-.31-.03-.48-.08s-.34-.14-.48-.26c-.15-.12-.27-.27-.37-.46s-.15-.42-.15-.7v-1.44c0-.27.05-.5.15-.69s.22-.34.37-.46c.15-.12.31-.2.48-.26.17-.05.34-.08.48-.08h1.92c.27,0,.5.05.7.15s.35.22.46.37c.12.15.2.31.26.48.05.17.08.34.08.49v1.46ZM20.13,2.93c0-.15-.04-.26-.11-.33s-.18-.11-.32-.11h-1.91c-.14,0-.25.04-.32.11s-.11.18-.11.32v1.44c0,.14.04.25.11.32s.18.11.32.11h1.91c.14,0,.25-.04.32-.11s.11-.18.11-.32v-1.43Z" fill="#00aeef" stroke-width="0"/><path d="M26.94,5.32c0,.08-.01.15-.04.21s-.06.12-.11.17c-.05.05-.1.08-.17.11s-.13.04-.21.04h-2.41c-.13,0-.27-.02-.42-.04-.15-.03-.3-.08-.44-.15s-.28-.15-.42-.25-.25-.23-.35-.37c-.1-.15-.18-.31-.24-.51s-.09-.41-.09-.65V1.43h1.06v2.46c0,.14.02.26.07.37s.11.21.19.28c.08.08.18.14.29.18s.23.06.36.06h1.86V1.43h1.06v3.89h.01Z" fill="#00aeef" stroke-width="0"/><path d="M31.81,2.5h-2.39c-.14,0-.25.04-.33.11s-.11.18-.11.32v2.93h-1.06v-2.93c0-.18.02-.35.07-.49s.11-.27.19-.38c.08-.11.17-.2.27-.28.1-.08.21-.14.32-.19.11-.05.22-.09.34-.11.11-.02.22-.03.32-.03h2.4v1.06h-.02Z" fill="#00aeef" stroke-width="0"/><path d="M37.41,5.86h-1.06v-2.46c0-.14-.02-.26-.07-.37s-.11-.21-.19-.28c-.08-.08-.18-.14-.29-.18s-.23-.06-.36-.06h-1.86v3.36h-1.06V1.96c0-.07,0-.14.04-.21.03-.06.07-.12.11-.17.05-.05.11-.09.17-.11s.14-.04.21-.04h2.4c.13,0,.27.02.42.04.15.03.3.08.44.15s.29.15.42.25c.13.1.25.23.35.37.1.15.18.31.24.51.06.19.09.41.09.65,0,0,0,2.46,0,2.46Z" fill="#00aeef" stroke-width="0"/><path d="M43.1,2.9c0,.15-.03.31-.08.48-.05.17-.14.33-.25.48-.12.15-.27.27-.45.37-.19.1-.41.15-.68.15h-1.92v-1.01h1.92c.14,0,.26-.04.34-.13s.12-.2.12-.33c0-.14-.04-.25-.13-.33s-.2-.12-.32-.12h-1.92c-.14,0-.26.04-.34.13-.08.09-.12.2-.12.33v1.49c0,.14.04.25.13.33s.2.12.33.12h3.96l-1.16,1.02h-2.8c-.15,0-.31-.03-.48-.08-.17-.05-.33-.14-.47-.25-.15-.12-.27-.27-.37-.45s-.15-.41-.15-.68v-1.49c0-.15.03-.31.08-.48.05-.17.14-.33.25-.47.12-.15.27-.27.45-.37s.41-.15.68-.15h1.92c.15,0,.31.03.48.08.17.05.33.14.48.25.15.12.27.27.37.45.1.19.15.41.15.68l-.02-.02Z" fill="#00aeef" stroke-width="0"/><polygon points="8.45 2.73 5.37 2.73 5.37 6.86 5.36 6.86 1.41 6.86 0 6.86 0 9.91 1.41 9.91 5.36 9.91 5.37 9.91 5.37 19.53 8.45 19.53 8.45 9.91 13.77 9.91 13.77 6.86 8.45 6.86 8.45 2.73" fill="#fff" stroke-width="0"/><path d="M27.89,7.81c-.42-.33-.87-.57-1.36-.72s-.94-.22-1.37-.22h-5.5c-.77,0-1.42.14-1.95.42s-.97.63-1.3,1.05c-.33.42-.57.87-.72,1.36s-.22.94-.22,1.37v4.28c0,.77.14,1.42.42,1.95.28.53.63.97,1.05,1.3s.87.57,1.36.72.94.22,1.37.22h3.95l3.32-2.91h-7.25c-.38,0-.69-.11-.94-.34s-.38-.54-.38-.95v-4.25c0-.38.11-.69.34-.94s.55-.38.96-.38h5.5c.36,0,.67.11.92.34s.38.54.38.94-.11.69-.34.94-.55.38-.96.38h-5.5v2.89h5.5c.77,0,1.42-.14,1.95-.42s.97-.63,1.3-1.05.57-.87.72-1.36.22-.94.22-1.37c0-.77-.14-1.42-.42-1.95s-.63-.97-1.05-1.3Z" fill="#fff" stroke-width="0"/><path d="M37.04,6.85l-5.73,5.13c-.16.14-.28.31-.37.5s-.13.4-.13.62c0,.48.18.86.53,1.15l5.66,4.97h4.39l-6.98-6.12,6.98-6.26h-4.35Z" fill="#00aeef" stroke-width="0"/><path d="M57.38,8.63c-.22-.32-.47-.59-.76-.81s-.59-.4-.91-.54-.63-.24-.96-.31-.62-.1-.91-.1h-5.5v3.05h5.5c.41,0,.71.1.91.31s.3.51.3.91v8.4h3.05v-8.4c0-.52-.07-.99-.2-1.41s-.31-.78-.53-1.1h0Z" fill="#fff" stroke-width="0"/><rect x="44.06" y="1.51" width="3.05" height="18.02" fill="#fff" stroke-width="0"/><path d="M73.98,9.2c-.29-.42-.63-.77-1.01-1.07s-.78-.54-1.2-.73-.84-.33-1.27-.42-.83-.13-1.21-.13h-6.87c-.21,0-.41.04-.6.12s-.35.19-.49.32-.25.3-.33.48-.12.38-.12.59v11.16h3.05v-9.62h5.33c.37,0,.71.06,1.03.18s.59.29.83.52.42.5.56.81.21.67.21,1.07v7.03h3.05v-7.03c0-.69-.09-1.3-.26-1.85s-.4-1.03-.7-1.45v.02Z" fill="#fff" stroke-width="0"/><path d="M90.42,8.35c-.34-.43-.78-.78-1.32-1.06s-1.21-.42-1.99-.42h-5.5c-.42,0-.88.07-1.38.22s-.96.39-1.39.73c-.43.34-.78.78-1.07,1.32s-.43,1.21-.43,1.99v4.12c0,.79.14,1.46.43,2s.64.98,1.07,1.32.89.58,1.39.73.96.22,1.38.22h5.5c.29,0,.6-.03.92-.1s.64-.17.96-.31.62-.32.91-.54.54-.49.76-.81.39-.68.53-1.1.2-.89.2-1.41v-4.12c0-.43-.08-.89-.23-1.39s-.4-.96-.73-1.39h0ZM88.34,15.26c0,.4-.1.7-.3.91-.2.21-.51.32-.93.32h-5.47c-.41,0-.71-.11-.93-.32s-.32-.52-.32-.91v-4.12c0-.4.11-.7.32-.91s.52-.31.93-.31h5.47c.4,0,.7.1.91.3s.32.52.32.94v4.1Z" fill="#fff" stroke-width="0"/><path d="M97.3,16.15c-.23-.22-.35-.52-.35-.9V1.51h-3.05v13.75c0,.79.14,1.46.42,2s.64.98,1.07,1.32.89.58,1.39.73.96.22,1.4.22h1.36v-3.05h-1.36c-.35,0-.64-.11-.88-.33Z" fill="#fff" stroke-width="0"/><path d="M114.32,8.35c-.34-.43-.78-.78-1.32-1.06s-1.21-.42-1.99-.42h-5.5c-.42,0-.88.07-1.38.22s-.96.39-1.39.73c-.43.34-.78.78-1.07,1.32s-.43,1.21-.43,1.99v4.12c0,.79.14,1.46.43,2s.64.98,1.07,1.32.89.58,1.39.73.96.22,1.38.22h5.5c.29,0,.6-.03.92-.1s.64-.17.96-.31.62-.32.91-.54.54-.49.76-.81.39-.68.53-1.1.2-.89.2-1.41v-4.12c0-.43-.08-.89-.23-1.39s-.4-.96-.73-1.39h0ZM112.23,15.26c0,.4-.1.7-.3.91-.2.21-.51.32-.93.32h-5.47c-.41,0-.71-.11-.93-.32s-.32-.52-.32-.91v-4.12c0-.4.11-.7.32-.91s.52-.31.93-.31h5.47c.4,0,.7.1.91.3s.32.52.32.94v4.1Z" fill="#fff" stroke-width="0"/><path d="M130.92,8.63c-.22-.32-.47-.59-.76-.81s-.59-.4-.91-.54-.64-.24-.96-.31-.63-.1-.92-.1h-5.5c-.52,0-.99.07-1.41.2s-.78.31-1.1.53-.59.47-.81.76-.4.59-.54.91-.24.63-.31.96-.1.62-.1.91v4.12c0,.52.07.99.2,1.41s.31.79.53,1.1.47.59.76.81.59.4.91.54.63.24.96.31.62.1.91.1h5.5v-3.05h-5.47c-.41,0-.71-.11-.93-.32s-.32-.52-.32-.91v-4.12c0-.35.11-.64.33-.87s.52-.35.89-.35h5.5c.41,0,.72.1.93.31s.3.51.3.91v9.62c0,.4-.1.7-.3.91s-.51.32-.93.32h-5.5v3.05h5.5c.29,0,.6-.03.92-.1s.64-.17.96-.31.62-.32.91-.54.54-.49.76-.81.39-.68.53-1.1.2-.89.2-1.41v-9.62c0-.52-.07-.99-.2-1.41s-.31-.78-.53-1.1h0Z" fill="#fff" stroke-width="0"/><path d="M144.65,13.49c-.09-.2-.21-.36-.37-.5l-5.74-5.13h-4.34l6.98,6.26-6.98,6.12h4.38l5.67-4.97c.16-.14.29-.31.39-.51s.14-.41.14-.64-.04-.43-.13-.62h0Z" fill="#00aeef" stroke-width="0"/></svg>